<?xml version="1.0" encoding="utf-8"?>
<!-- Generator: Adobe Illustrator 21.1.0, SVG Export Plug-In . SVG Version: 6.00 Build 0)  -->
<svg version="1.1" id="Layer_1" xmlns="http://www.w3.org/2000/svg" xmlns:xlink="http://www.w3.org/1999/xlink" x="0px" y="0px"
	 viewBox="0 0 239.7 55.3" style="enable-background:new 0 0 239.7 55.3;" xml:space="preserve">
<style type="text/css">
	.st0{fill:#B7B7B7;}
	.st1{fill:#A0A0A0;}
	.st2{fill:#8E8E8E;}
	.st3{fill:#EAEAEA;}
	.st4{fill:#FFFFFF;}
	.st5{fill:#D6D6D6;}
	.st6{fill:#27AFEA;}
</style>
<g>
	<path class="st0" d="M19.4,9.8c-0.2-0.2-0.4-0.4-0.7-0.6L16,10.9l4.3,1.3L19.5,10C19.5,9.9,19.4,9.8,19.4,9.8L19.4,9.8z"/>
	<path class="st1" d="M18.7,9.2L18.5,9c-1.5,0.4-3,0.8-4.4,1.3c0.6,0.2,1.2,0.4,1.9,0.6L18.7,9.2L18.7,9.2z"/>
	<path class="st2" d="M21.1,12.9c-0.1-0.4-0.2-0.7-0.4-1.1l-0.6,0.4L21.1,12.9L21.1,12.9z"/>
	<path class="st3" d="M21.3,14.6c0-0.6-0.1-1.1-0.2-1.7l-0.9-0.7l-6.6,3.7l-2.7,1.5l3.1,0.4l7.2-1.5C21.3,15.8,21.3,15.2,21.3,14.6
		L21.3,14.6z"/>
	<path class="st0" d="M19.4,19.3c0.8-0.9,1.4-1.8,1.7-2.9l-7.2,1.5L19.4,19.3L19.4,19.3z"/>
	<path class="st2" d="M19.4,19.4L19.4,19.4L14,17.9l0.4,3.5h0.2C16.4,21.3,18,20.7,19.4,19.4L19.4,19.4z"/>
	<path class="st1" d="M20.2,12.2l0.6-0.4c-0.3-0.7-0.7-1.3-1.3-1.9L20.2,12.2L20.2,12.2z"/>
	<path class="st4" d="M9.8,9.8L9.8,9.8c1.1,1,2.2,1.9,3.3,2.9c0.3-0.8,0.7-1.6,1-2.4c-1.2-0.4-2.4-0.8-3.6-1.1
		C10.2,9.4,10,9.5,9.8,9.8L9.8,9.8z"/>
	<path class="st3" d="M12.6,8.1c-0.8,0.2-1.5,0.6-2.2,1.1c1.2,0.4,2.4,0.8,3.6,1.1C13.6,9.6,13.1,8.8,12.6,8.1L12.6,8.1z"/>
	<path class="st1" d="M15.1,7.8c-0.2,0-0.3,0-0.5,0c-0.7,0-1.3,0.1-1.9,0.3c0.5,0.7,1,1.5,1.5,2.2C14.4,9.5,14.7,8.6,15.1,7.8
		L15.1,7.8z"/>
	<path class="st5" d="M15.8,7.9c-0.3,0-0.5-0.1-0.7-0.1c-0.3,0.8-0.7,1.7-1,2.5C14.7,9.5,15.2,8.7,15.8,7.9L15.8,7.9z"/>
	<path class="st3" d="M15.8,7.9c-0.6,0.8-1.2,1.6-1.7,2.4c1.5-0.4,3-0.8,4.4-1.3C17.7,8.4,16.8,8.1,15.8,7.9L15.8,7.9z"/>
	<path class="st1" d="M7.8,14.6c0,0.3,0,0.6,0.1,0.8l1.8,1.8l3.5-4.5c-1.4-0.6-2.9-1.1-4.3-1.7C8.1,12.1,7.8,13.2,7.8,14.6L7.8,14.6
		z"/>
	<path class="st0" d="M13.1,12.7c1-0.6,1.9-1.2,2.9-1.8c-0.6-0.2-1.2-0.4-1.9-0.6C13.8,11.1,13.4,11.9,13.1,12.7L13.1,12.7z"/>
	<path class="st3" d="M16,10.9c-1,0.6-1.9,1.2-2.9,1.8c2.4-0.2,4.8-0.3,7.1-0.5L16,10.9L16,10.9z"/>
	<path class="st2" d="M10,19.6l0.2-1.8l-0.6-0.6c-0.3,0.3-0.5,0.7-0.8,1c0.1,0.1,0.2,0.3,0.3,0.4c0.2,0.2,0.4,0.5,0.6,0.7
		C9.9,19.5,10,19.5,10,19.6L10,19.6z"/>
	<path class="st3" d="M10.3,17.8L10,19.6c0.2,0.2,0.5,0.4,0.8,0.6l3.1-2.4l-3.1-0.4L10.3,17.8L10.3,17.8z"/>
	<path class="st0" d="M8.9,18.2c0.3-0.3,0.5-0.7,0.8-1l-1.8-1.8C8,16.4,8.3,17.4,8.9,18.2L8.9,18.2z"/>
	<path class="st0" d="M9.6,17.2l0.6,0.6l0.6-0.4l2.7-1.5c-0.2-1.1-0.4-2.2-0.5-3.2L9.6,17.2L9.6,17.2z"/>
	<path class="st0" d="M13.1,12.7c0.2,1.1,0.4,2.2,0.5,3.2l6.6-3.7C17.8,12.4,15.5,12.5,13.1,12.7L13.1,12.7z"/>
	<path class="st5" d="M13.9,17.8l-3.1,2.4c1.1,0.7,2.2,1.1,3.6,1.1L13.9,17.8L13.9,17.8z"/>
	<path class="st3" d="M8.8,11c1.4,0.6,2.9,1.1,4.3,1.7c-1.1-1-2.2-1.9-3.3-2.9C9.4,10.2,9,10.6,8.8,11L8.8,11z"/>
</g>
<g>
	<g>
		<path class="st6" d="M22.1,5.6c0.2,0.2,0.5,0.4,0.7,0.7c0.4,0.4,0.6,0.6,0.7,0.7l1.4-2.7L22.1,5.6L22.1,5.6z"/>
		<polygon class="st6" points="25,9.2 25.7,11 28,9 		"/>
		<path class="st6" d="M26.2,15.5l2.9-1l-2.9-0.9c0,0.3,0,0.6,0,0.9C26.3,14.8,26.2,15.1,26.2,15.5L26.2,15.5z"/>
		<path class="st6" d="M25.7,18.1L25.4,19c-0.1,0.3-0.3,0.6-0.4,0.9l3.1,0.2L25.7,18.1L25.7,18.1z"/>
		<path class="st6" d="M23.5,22.1l-0.7,0.7c-0.2,0.2-0.5,0.4-0.7,0.7l2.8,1.4L23.5,22.1L23.5,22.1z"/>
		<path class="st6" d="M9.2,4.2C9.5,4,9.8,3.9,10.1,3.7c0.4-0.1,0.7-0.3,0.9-0.3L9,1.1L9.2,4.2L9.2,4.2z"/>
		<path class="st6" d="M4.2,9.2L1.1,9l2.3,2c0.1-0.3,0.2-0.6,0.4-0.9C3.9,9.7,4,9.5,4.2,9.2L4.2,9.2z"/>
		<path class="st6" d="M5.6,7c0.2-0.3,0.5-0.5,0.7-0.7L7,5.6L4.3,4.2L5.6,7L5.6,7z"/>
		<path class="st6" d="M18.1,3.4c0.3,0.1,0.6,0.2,0.9,0.3c0.4,0.1,0.6,0.3,0.9,0.4l0.2-3L18.1,3.4L18.1,3.4z"/>
		<path class="st6" d="M14.6,0l-1,2.9c0.3,0,0.6,0,1,0s0.7,0,0.9,0L14.6,0L14.6,0z"/>
		<path class="st6" d="M19.9,25c-0.3,0.2-0.6,0.3-0.9,0.4s-0.6,0.2-0.9,0.3l2,2.3L19.9,25L19.9,25z"/>
		<path class="st6" d="M2.9,13.6L0,14.5l2.9,1c0-0.3,0-0.7,0-1S2.9,13.9,2.9,13.6L2.9,13.6z"/>
		<path class="st6" d="M6.3,22.8c-0.2-0.2-0.4-0.5-0.7-0.7l-1.3,2.8L7,23.5C6.7,23.3,6.5,23,6.3,22.8L6.3,22.8z"/>
		<path class="st6" d="M3.8,19.1c-0.1-0.3-0.3-0.7-0.3-0.9l-2.3,2l3-0.2C4,19.6,3.9,19.4,3.8,19.1L3.8,19.1z"/>
		<path class="st6" d="M14.6,26.2c-0.3,0-0.7,0-1,0l1,2.9l0.9-2.9C15.3,26.2,15,26.2,14.6,26.2L14.6,26.2z"/>
		<path class="st6" d="M10.1,25.4c-0.4-0.2-0.7-0.3-0.9-0.4L9,28l2-2.3C10.7,25.6,10.4,25.5,10.1,25.4L10.1,25.4z"/>
	</g>
</g>
<g>
	<path class="st4" d="M36.4,0.7h3.5V4h-3.5V0.7z M36.6,8.5h3V29h-3V8.5z"/>
	<path class="st4" d="M46.7,8.5h3v3.6c0.7-1.1,1.6-2.1,2.7-2.8c1.1-0.8,2.5-1.2,4.3-1.2c1.2,0,2.3,0.2,3.3,0.6c1,0.4,1.8,1,2.5,1.7
		S63.7,12,64,13c0.4,1,0.5,2.1,0.5,3.3V29h-3V17c0-1.9-0.5-3.4-1.5-4.5s-2.4-1.7-4.2-1.7c-0.9,0-1.7,0.2-2.4,0.5
		c-0.8,0.3-1.4,0.7-2,1.3s-1,1.2-1.3,2s-0.5,1.7-0.5,2.6v11.7h-3V8.5H46.7z"/>
	<path class="st4" d="M77.9,29.3c-0.8,0-1.6-0.1-2.3-0.3c-0.7-0.2-1.3-0.5-1.8-1s-0.9-1.1-1.2-1.8c-0.3-0.7-0.4-1.6-0.4-2.7V11.2
		h-2.8V8.5h2.8V2.3h3v6.2h6.5v2.7h-6.5v11.9c0,1.3,0.3,2.1,0.9,2.6s1.5,0.7,2.5,0.7c0.5,0,1,0,1.5-0.1s1-0.3,1.5-0.5v2.6
		c-0.5,0.3-1.1,0.5-1.7,0.7C79.3,29.2,78.7,29.3,77.9,29.3z"/>
	<path class="st4" d="M88.9,20c0.1,1.1,0.4,2,0.8,2.9c0.4,0.8,1,1.6,1.6,2.1c0.7,0.6,1.4,1,2.2,1.3c0.8,0.3,1.7,0.5,2.6,0.5
		c1.4,0,2.6-0.3,3.7-0.8c1-0.5,1.9-1.2,2.8-2.1l1.9,1.7c-1,1.2-2.2,2.1-3.5,2.8c-1.3,0.7-3,1-4.9,1c-1.4,0-2.7-0.3-4-0.8
		c-1.2-0.5-2.3-1.2-3.2-2.2c-0.9-0.9-1.7-2.1-2.2-3.4s-0.8-2.8-0.8-4.4c0-1.5,0.2-2.9,0.7-4.2s1.2-2.4,2-3.4c0.9-1,1.9-1.7,3.1-2.3
		s2.5-0.8,3.9-0.8c1.5,0,2.8,0.3,4,0.9c1.2,0.6,2.2,1.3,3,2.3s1.4,2.1,1.9,3.4c0.4,1.3,0.6,2.7,0.6,4.2c0,0.1,0,0.3,0,0.5
		s0,0.4,0,0.6H88.9V20z M102.1,17.5c-0.1-0.9-0.3-1.8-0.6-2.6c-0.3-0.8-0.7-1.6-1.3-2.2c-0.5-0.6-1.2-1.1-2-1.5s-1.7-0.6-2.7-0.6
		c-0.9,0-1.7,0.2-2.5,0.5s-1.4,0.8-2,1.4c-0.6,0.6-1.1,1.3-1.4,2.2c-0.4,0.8-0.6,1.7-0.7,2.7h13.2V17.5z"/>
	<path class="st4" d="M110.5,8.5h3v5.3c0.4-0.8,0.8-1.6,1.4-2.3s1.2-1.3,1.9-1.8c0.7-0.5,1.5-0.9,2.3-1.2s1.8-0.4,2.7-0.4v3.3h-0.2
		c-1.1,0-2.2,0.2-3.1,0.6c-1,0.4-1.9,1-2.6,1.8s-1.3,1.8-1.7,2.9c-0.4,1.2-0.6,2.5-0.6,4.1V29h-3V8.5H110.5z"/>
	<path class="st4" d="M132.6,29.4c-0.9,0-1.9-0.1-2.8-0.4c-0.9-0.3-1.7-0.7-2.5-1.2c-0.7-0.5-1.3-1.2-1.7-2S125,24.1,125,23v-0.1
		c0-1.1,0.2-2.1,0.6-2.9s1-1.5,1.8-2.1c0.8-0.6,1.7-1,2.8-1.3c1.1-0.3,2.2-0.4,3.5-0.4s2.5,0.1,3.4,0.2c1,0.2,1.9,0.4,2.8,0.6v-0.6
		c0-1.8-0.5-3.2-1.6-4.1s-2.5-1.4-4.5-1.4c-1.2,0-2.3,0.1-3.3,0.4c-1,0.3-2,0.6-2.9,1.1l-0.9-2.5c1.1-0.5,2.3-1,3.4-1.3
		c1.2-0.3,2.5-0.5,4-0.5c2.9,0,5.1,0.8,6.6,2.3c1.4,1.4,2.1,3.4,2.1,6v12.5h-3v-3c-0.7,0.9-1.7,1.7-2.9,2.4
		C135.9,29,134.4,29.4,132.6,29.4z M133.2,26.9c0.9,0,1.8-0.1,2.6-0.4s1.5-0.6,2.1-1.1s1.1-1.1,1.5-1.7c0.4-0.7,0.5-1.4,0.5-2.2
		v-1.9c-0.8-0.2-1.6-0.4-2.6-0.6s-2.1-0.3-3.4-0.3c-1.9,0-3.4,0.4-4.4,1.1s-1.6,1.7-1.6,3v0.1c0,0.6,0.1,1.2,0.4,1.7
		s0.7,0.9,1.1,1.3c0.5,0.3,1,0.6,1.6,0.8C131.9,26.8,132.6,26.9,133.2,26.9z"/>
	<path class="st4" d="M158.7,29.4c-1.5,0-2.9-0.3-4.2-0.9s-2.4-1.3-3.3-2.3c-0.9-1-1.7-2.1-2.2-3.4s-0.8-2.7-0.8-4.1v-0.1
		c0-1.5,0.3-2.8,0.8-4.1s1.3-2.4,2.2-3.4s2-1.7,3.3-2.3s2.7-0.9,4.2-0.9c1,0,1.9,0.1,2.7,0.3s1.5,0.4,2.2,0.8
		c0.7,0.3,1.3,0.7,1.8,1.2c0.6,0.4,1.1,0.9,1.5,1.4l-2,2.1c-0.8-0.8-1.7-1.6-2.7-2.2c-1-0.6-2.1-0.9-3.5-0.9c-1,0-2,0.2-2.9,0.6
		c-0.9,0.4-1.7,1-2.3,1.7c-0.7,0.7-1.2,1.5-1.5,2.5c-0.4,1-0.6,2-0.6,3.1v0.1c0,1.1,0.2,2.1,0.6,3.1c0.4,1,0.9,1.8,1.6,2.5
		c0.7,0.7,1.5,1.3,2.4,1.7c0.9,0.4,1.9,0.6,3,0.6c1.3,0,2.5-0.3,3.5-0.9s1.9-1.3,2.8-2.2l1.9,1.8c-1,1.2-2.2,2.1-3.5,2.8
		C162.2,29.1,160.6,29.4,158.7,29.4z"/>
	<path class="st4" d="M178.9,29.3c-0.8,0-1.6-0.1-2.3-0.3c-0.7-0.2-1.3-0.5-1.8-1s-0.9-1.1-1.2-1.8c-0.3-0.7-0.4-1.6-0.4-2.7V11.2
		h-2.8V8.5h2.8V2.3h3v6.2h6.5v2.7h-6.5v11.9c0,1.3,0.3,2.1,0.9,2.6c0.6,0.5,1.5,0.7,2.5,0.7c0.5,0,1,0,1.5-0.1s1-0.3,1.5-0.5v2.6
		c-0.5,0.3-1.1,0.5-1.7,0.7C180.3,29.2,179.6,29.3,178.9,29.3z"/>
	<path class="st4" d="M188.1,0.7h3.5V4h-3.5V0.7z M188.3,8.5h3V29h-3V8.5z"/>
	<path class="st4" d="M196.4,8.5h3.4l6.9,17l6.9-17h3.3L208,29.1h-2.7L196.4,8.5z"/>
	<path class="st4" d="M223.5,20c0.1,1.1,0.4,2,0.8,2.9c0.4,0.8,1,1.6,1.6,2.1c0.7,0.6,1.4,1,2.2,1.3s1.7,0.5,2.6,0.5
		c1.4,0,2.6-0.3,3.7-0.8c1-0.5,1.9-1.2,2.8-2.1l1.9,1.7c-1,1.2-2.2,2.1-3.5,2.8c-1.3,0.7-3,1-4.9,1c-1.4,0-2.7-0.3-4-0.8
		c-1.2-0.5-2.3-1.2-3.2-2.2c-0.9-0.9-1.7-2.1-2.2-3.4s-0.8-2.8-0.8-4.4c0-1.5,0.2-2.9,0.7-4.2s1.2-2.4,2-3.4c0.9-1,1.9-1.7,3.1-2.3
		c1.2-0.6,2.5-0.8,3.9-0.8c1.5,0,2.8,0.3,4,0.9c1.2,0.6,2.2,1.3,3,2.3s1.4,2.1,1.9,3.4c0.4,1.3,0.6,2.7,0.6,4.2c0,0.1,0,0.3,0,0.5
		s0,0.4,0,0.6h-16.2V20z M236.6,17.5c-0.1-0.9-0.3-1.8-0.6-2.6s-0.7-1.6-1.3-2.2c-0.5-0.6-1.2-1.1-2-1.5s-1.7-0.6-2.7-0.6
		c-0.9,0-1.7,0.2-2.5,0.5s-1.4,0.8-2,1.4c-0.6,0.6-1.1,1.3-1.4,2.2c-0.4,0.8-0.6,1.7-0.7,2.7h13.2V17.5z"/>
</g>
<g>
	<path class="st6" d="M88.8,55.3c-1,0-2.1-0.2-3.1-0.6c-1-0.4-2-0.9-2.7-1.5l0.8-1.1c0.8,0.6,1.6,1.1,2.5,1.4
		c0.9,0.3,1.8,0.5,2.7,0.5c1,0,1.8-0.2,2.5-0.7s1-1.2,1-2v-0.1c0-0.4-0.1-0.8-0.3-1.1c-0.2-0.3-0.5-0.6-0.8-0.8
		c-0.4-0.2-0.8-0.4-1.2-0.6c-0.4-0.1-0.9-0.3-1.4-0.4c-0.6-0.2-1.2-0.3-1.8-0.5c-0.6-0.2-1.1-0.4-1.6-0.7s-0.8-0.6-1.1-1.1
		c-0.3-0.4-0.4-1-0.4-1.6v-0.1c0-0.6,0.1-1.1,0.4-1.6c0.2-0.5,0.6-0.9,1-1.2c0.4-0.4,0.9-0.6,1.5-0.8s1.2-0.3,1.9-0.3
		c0.9,0,1.7,0.1,2.7,0.4s1.7,0.7,2.4,1.2l-0.7,1.2c-0.7-0.4-1.4-0.8-2.1-1c-0.8-0.3-1.5-0.4-2.3-0.4c-1,0-1.8,0.2-2.4,0.7
		s-0.9,1.1-0.9,1.8v0.1c0,0.4,0.1,0.7,0.3,1c0.2,0.3,0.5,0.5,0.9,0.7s0.8,0.4,1.3,0.5c0.5,0.2,1,0.3,1.5,0.5
		c0.6,0.2,1.2,0.4,1.7,0.5c0.6,0.2,1.1,0.4,1.5,0.8c0.4,0.3,0.8,0.7,1.1,1.1c0.3,0.4,0.4,1,0.4,1.6v0.1c0,0.6-0.1,1.2-0.4,1.7
		s-0.6,1-1.1,1.3c-0.4,0.4-1,0.6-1.6,0.8C90.2,55.2,89.5,55.3,88.8,55.3z"/>
	<path class="st6" d="M104.2,55.3c-0.9,0-1.8-0.2-2.7-0.5c-0.9-0.4-1.6-0.9-2.3-1.5c-0.6-0.7-1.2-1.4-1.5-2.4
		c-0.4-0.9-0.6-1.9-0.6-3.1v-0.1c0-1,0.2-2,0.5-2.9s0.8-1.7,1.4-2.4s1.3-1.2,2.2-1.6c0.8-0.4,1.7-0.6,2.7-0.6s1.9,0.2,2.7,0.6
		c0.8,0.4,1.5,0.9,2.1,1.6c0.6,0.7,1,1.5,1.3,2.4s0.5,1.9,0.5,3c0,0.1,0,0.2,0,0.3s0,0.2,0,0.3H98.6c0.1,0.9,0.3,1.7,0.6,2.4
		c0.3,0.7,0.8,1.3,1.3,1.8s1.1,0.9,1.7,1.1c0.6,0.3,1.3,0.4,2,0.4c1.1,0,2.1-0.2,2.9-0.6c0.8-0.4,1.5-1,2.1-1.6l1,0.8
		c-0.7,0.8-1.6,1.4-2.5,2C106.7,55,105.6,55.3,104.2,55.3z M109.1,47.1c-0.1-0.7-0.2-1.4-0.4-2.1c-0.2-0.7-0.6-1.3-1-1.8
		s-0.9-0.9-1.6-1.2c-0.6-0.3-1.3-0.5-2.2-0.5c-0.7,0-1.4,0.1-2,0.4c-0.6,0.3-1.2,0.7-1.6,1.2c-0.5,0.5-0.8,1.1-1.1,1.8
		c-0.3,0.7-0.5,1.4-0.5,2.2C98.7,47.1,109.1,47.1,109.1,47.1z"/>
	<path class="st6" d="M114.6,40.6h1.4v4.1c0.3-0.6,0.6-1.2,1.1-1.8c0.4-0.5,0.9-1,1.5-1.4c0.5-0.4,1.1-0.7,1.8-0.9
		c0.6-0.2,1.3-0.3,2-0.3v1.5h-0.1c-0.8,0-1.6,0.2-2.4,0.5c-0.7,0.3-1.4,0.8-2,1.4c-0.6,0.6-1,1.4-1.4,2.2c-0.3,0.9-0.5,1.9-0.5,3.1
		v6h-1.4V40.6z"/>
	<path class="st6" d="M124.4,40.6h1.6l5.4,12.8l5.5-12.8h1.5L132,55.1h-1.2L124.4,40.6z"/>
	<path class="st6" d="M142.2,35h1.7v1.9h-1.7V35z M142.4,40.6h1.4V55h-1.4V40.6z"/>
	<path class="st6" d="M155.5,55.3c-1,0-2-0.2-2.9-0.6s-1.7-0.9-2.3-1.6c-0.7-0.7-1.2-1.5-1.5-2.4c-0.4-0.9-0.6-1.9-0.6-2.9v-0.1
		c0-1,0.2-2,0.6-2.9c0.4-0.9,0.9-1.7,1.5-2.4c0.7-0.7,1.4-1.2,2.3-1.6c0.9-0.4,1.9-0.6,2.9-0.6c0.7,0,1.3,0.1,1.8,0.2
		c0.6,0.1,1.1,0.3,1.5,0.6c0.5,0.2,0.9,0.5,1.3,0.9c0.4,0.3,0.7,0.7,1.1,1l-1,1c-0.6-0.6-1.3-1.2-2.1-1.7c-0.7-0.5-1.7-0.7-2.7-0.7
		c-0.8,0-1.6,0.2-2.3,0.5s-1.3,0.8-1.8,1.3c-0.5,0.6-0.9,1.2-1.2,1.9s-0.4,1.5-0.4,2.4v0.1c0,0.9,0.2,1.7,0.5,2.4
		c0.3,0.8,0.7,1.4,1.3,2c0.5,0.6,1.2,1,1.9,1.3s1.5,0.5,2.3,0.5c1,0,1.9-0.2,2.7-0.7s1.5-1,2.1-1.7l1,0.8c-0.7,0.8-1.6,1.5-2.5,2.1
		C157.9,55,156.8,55.3,155.5,55.3z"/>
	<path class="st6" d="M171.3,55.3c-0.9,0-1.8-0.2-2.7-0.5c-0.9-0.4-1.6-0.9-2.3-1.5c-0.6-0.7-1.2-1.4-1.5-2.4
		c-0.4-0.9-0.6-1.9-0.6-3.1v-0.1c0-1,0.2-2,0.5-2.9s0.8-1.7,1.4-2.4c0.6-0.7,1.3-1.2,2.2-1.6c0.8-0.4,1.7-0.6,2.7-0.6
		s1.9,0.2,2.7,0.6c0.8,0.4,1.5,0.9,2.1,1.6c0.6,0.7,1,1.5,1.3,2.4s0.5,1.9,0.5,3c0,0.1,0,0.2,0,0.3s0,0.2,0,0.3h-11.9
		c0.1,0.9,0.3,1.7,0.6,2.4s0.8,1.3,1.3,1.8s1.1,0.9,1.7,1.1c0.6,0.3,1.3,0.4,2,0.4c1.1,0,2.1-0.2,2.9-0.6c0.8-0.4,1.5-1,2.1-1.6
		l1,0.8c-0.7,0.8-1.6,1.4-2.5,2C173.8,55,172.7,55.3,171.3,55.3z M176.2,47.1c-0.1-0.7-0.2-1.4-0.4-2.1c-0.2-0.7-0.6-1.3-1-1.8
		s-0.9-0.9-1.6-1.2c-0.6-0.3-1.3-0.5-2.2-0.5c-0.7,0-1.4,0.1-2,0.4c-0.6,0.3-1.2,0.7-1.6,1.2c-0.5,0.5-0.8,1.1-1.1,1.8
		s-0.5,1.4-0.5,2.2C165.8,47.1,176.2,47.1,176.2,47.1z"/>
	<path class="st6" d="M186.3,55.3c-1,0-2.1-0.2-3.1-0.6c-1-0.4-2-0.9-2.7-1.5l0.8-1.1c0.8,0.6,1.6,1.1,2.5,1.4
		c0.9,0.3,1.8,0.5,2.7,0.5c1,0,1.8-0.2,2.5-0.7s1-1.2,1-2v-0.1c0-0.4-0.1-0.8-0.3-1.1s-0.5-0.6-0.8-0.8c-0.4-0.2-0.8-0.4-1.2-0.6
		c-0.4-0.1-0.9-0.3-1.4-0.4c-0.6-0.2-1.2-0.3-1.8-0.5s-1.1-0.4-1.6-0.7s-0.8-0.6-1.1-1.1c-0.3-0.4-0.4-1-0.4-1.6v-0.1
		c0-0.6,0.1-1.1,0.4-1.6c0.2-0.5,0.6-0.9,1-1.2c0.4-0.4,0.9-0.6,1.5-0.8s1.2-0.3,1.9-0.3c0.9,0,1.7,0.1,2.7,0.4s1.7,0.7,2.4,1.2
		l-0.7,1.2c-0.7-0.4-1.4-0.8-2.1-1c-0.8-0.3-1.5-0.4-2.3-0.4c-1,0-1.8,0.2-2.4,0.7c-0.6,0.5-0.9,1.1-0.9,1.8v0.1
		c0,0.4,0.1,0.7,0.3,1s0.5,0.5,0.9,0.7s0.8,0.4,1.3,0.5c0.5,0.2,1,0.3,1.5,0.5c0.6,0.2,1.2,0.4,1.7,0.5c0.6,0.2,1.1,0.4,1.5,0.8
		c0.4,0.3,0.8,0.7,1.1,1.1c0.3,0.4,0.4,1,0.4,1.6v0.1c0,0.6-0.1,1.2-0.4,1.7c-0.3,0.5-0.6,1-1.1,1.3c-0.4,0.4-1,0.6-1.6,0.8
		C187.6,55.2,187,55.3,186.3,55.3z"/>
</g>
</svg>
